<svg width="75" height="75" viewBox="0 0 75 75" fill="none" xmlns="http://www.w3.org/2000/svg">
<circle cx="37.5" cy="37.5" r="37.5" fill="#C7A943"/>
<g clip-path="url(#clip0_124_1060)">
<path d="M57.0617 31.75H52.3843L51.0843 28.5C49.7484 25.1586 46.5601 23 42.9609 23H33.039C29.4406 23 26.2515 25.1586 24.9148 28.5L23.6148 31.75H18.9382C18.3281 31.75 17.8804 32.3234 18.0289 32.9148L18.4976 34.7898C18.6015 35.207 18.9765 35.5 19.407 35.5H20.975C19.9257 36.4164 19.25 37.7484 19.25 39.25V43C19.25 44.2594 19.7312 45.3961 20.5 46.2758V50.5C20.5 51.8805 21.6195 53 23 53H25.5C26.8804 53 28 51.8805 28 50.5V48H48V50.5C48 51.8805 49.1195 53 50.5 53H53C54.3804 53 55.5 51.8805 55.5 50.5V46.2758C56.2687 45.3969 56.75 44.2602 56.75 43V39.25C56.75 37.7484 56.0742 36.4164 55.0257 35.5H56.5937C57.0242 35.5 57.3992 35.207 57.5031 34.7898L57.9718 32.9148C58.1195 32.3234 57.6718 31.75 57.0617 31.75ZM29.557 30.357C30.1265 28.9336 31.5054 28 33.039 28H42.9609C44.4945 28 45.8734 28.9336 46.4429 30.357L48 34.25H28L29.557 30.357ZM25.5 42.9844C24 42.9844 23 41.9875 23 40.4922C23 38.9969 24 38 25.5 38C27 38 29.25 40.243 29.25 41.7383C29.25 43.2336 27 42.9844 25.5 42.9844ZM50.5 42.9844C49 42.9844 46.75 43.2336 46.75 41.7383C46.75 40.243 49 38 50.5 38C52 38 53 38.9969 53 40.4922C53 41.9875 52 42.9844 50.5 42.9844Z" fill="white"/>
</g>
<defs>
<clipPath id="clip0_124_1060">
<rect width="40" height="40" fill="white" transform="translate(18 18)"/>
</clipPath>
</defs>
</svg>
