<svg width="40" height="40" viewBox="0 0 40 40" fill="none" xmlns="http://www.w3.org/2000/svg">
<rect y="-0.00012207" width="40" height="40" rx="20" fill="#171717"/>
<path fill-rule="evenodd" clip-rule="evenodd" d="M15.0868 8.15469C16.3575 8.09619 16.7627 8.08319 19.9997 8.08319C23.2367 8.08319 23.6418 8.09727 24.9115 8.15469C26.1812 8.21211 27.0478 8.41469 27.8062 8.70827C28.6003 9.00836 29.3207 9.47744 29.9165 10.0841C30.5232 10.6789 30.9912 11.3982 31.2902 12.1934C31.5848 12.9517 31.7863 13.8184 31.8448 15.0859C31.9033 16.3588 31.9163 16.7639 31.9163 19.9999C31.9163 23.2358 31.9023 23.642 31.8448 24.9128C31.7874 26.1803 31.5848 27.0469 31.2902 27.8053C30.991 28.6005 30.5223 29.321 29.9165 29.9167C29.3207 30.5234 28.6003 30.9914 27.8062 31.2904C27.0478 31.585 26.1812 31.7865 24.9137 31.845C23.6418 31.9035 23.2367 31.9165 19.9997 31.9165C16.7627 31.9165 16.3575 31.9024 15.0868 31.845C13.8193 31.7876 12.9526 31.585 12.1943 31.2904C11.3991 30.9912 10.6785 30.5225 10.0828 29.9167C9.4768 29.3214 9.00768 28.6013 8.70809 27.8064C8.41451 27.048 8.21301 26.1814 8.15451 24.9139C8.09601 23.6409 8.08301 23.2358 8.08301 19.9999C8.08301 16.7639 8.09709 16.3577 8.15451 15.088C8.21192 13.8184 8.41451 12.9517 8.70809 12.1934C9.008 11.3983 9.47749 10.6782 10.0839 10.083C10.6789 9.47712 11.3986 9.008 12.1932 8.70827C12.9515 8.41469 13.8193 8.21319 15.0868 8.15469ZM24.814 10.2997C23.5573 10.2423 23.1803 10.2304 19.9986 10.2304C16.8168 10.2304 16.4398 10.2423 15.1832 10.2997C14.0208 10.3528 13.3903 10.5467 12.9699 10.7103C12.4142 10.9269 12.0166 11.1837 11.5995 11.6008C11.2038 11.9851 10.8995 12.4535 10.709 12.9712C10.5454 13.3915 10.3515 14.022 10.2984 15.1844C10.241 16.4411 10.2291 16.8181 10.2291 19.9999C10.2291 23.1816 10.241 23.5586 10.2984 24.8153C10.3515 25.9777 10.5454 26.6082 10.709 27.0285C10.8997 27.5453 11.2041 28.0144 11.5995 28.3989C11.9841 28.7944 12.4532 29.0988 12.9699 29.2894C13.3903 29.453 14.0208 29.6469 15.1832 29.7C16.4398 29.7574 16.8158 29.7694 19.9986 29.7694C23.1814 29.7694 23.5573 29.7574 24.814 29.7C25.9764 29.6469 26.6069 29.453 27.0273 29.2894C27.583 29.0728 27.9806 28.816 28.3977 28.3989C28.7931 28.0144 29.0975 27.5453 29.2882 27.0285C29.4518 26.6082 29.6457 25.9777 29.6988 24.8153C29.7562 23.5586 29.7681 23.1816 29.7681 19.9999C29.7681 16.8181 29.7562 16.4411 29.6988 15.1844C29.6457 14.022 29.4518 13.3915 29.2882 12.9712C29.0715 12.4154 28.8148 12.0179 28.3977 11.6008C28.0133 11.2051 27.545 10.9007 27.0273 10.7103C26.6069 10.5467 25.9764 10.3528 24.814 10.2997ZM18.4765 23.6734C19.3266 24.0273 20.2731 24.075 21.1544 23.8086C22.0358 23.5421 22.7973 22.9779 23.3088 22.2123C23.8204 21.4467 24.0503 20.5273 23.9593 19.6111C23.8683 18.6948 23.462 17.8386 22.8098 17.1886C22.3941 16.7731 21.8914 16.455 21.338 16.2571C20.7845 16.0592 20.1941 15.9865 19.6091 16.0442C19.0242 16.1019 18.4593 16.2885 17.9552 16.5907C17.4511 16.8929 17.0202 17.3032 16.6937 17.7919C16.3671 18.2806 16.153 18.8356 16.0667 19.417C15.9803 19.9984 16.024 20.5917 16.1945 21.1542C16.365 21.7167 16.6581 22.2344 17.0527 22.67C17.4473 23.1056 17.9336 23.4483 18.4765 23.6734ZM15.6685 15.6687C16.2373 15.0999 16.9125 14.6487 17.6557 14.3409C18.3988 14.0331 19.1953 13.8747 19.9997 13.8747C20.804 13.8747 21.6005 14.0331 22.3437 14.3409C23.0868 14.6487 23.7621 15.0999 24.3308 15.6687C24.8996 16.2375 25.3508 16.9127 25.6586 17.6558C25.9664 18.399 26.1249 19.1955 26.1249 19.9999C26.1249 20.8042 25.9664 21.6007 25.6586 22.3439C25.3508 23.087 24.8996 23.7622 24.3308 24.331C23.1821 25.4797 21.6242 26.1251 19.9997 26.1251C18.3752 26.1251 16.8172 25.4797 15.6685 24.331C14.5198 23.1823 13.8745 21.6244 13.8745 19.9999C13.8745 18.3754 14.5198 16.8174 15.6685 15.6687ZM27.4833 14.7869C27.6243 14.6539 27.7371 14.494 27.8152 14.3167C27.8932 14.1393 27.9349 13.9481 27.9377 13.7544C27.9405 13.5606 27.9045 13.3683 27.8316 13.1887C27.7588 13.0092 27.6506 12.8461 27.5136 12.7091C27.3766 12.5721 27.2135 12.4639 27.034 12.3911C26.8544 12.3182 26.6621 12.2822 26.4683 12.285C26.2746 12.2878 26.0834 12.3295 25.906 12.4075C25.7287 12.4856 25.5688 12.5984 25.4358 12.7394C25.1773 13.0135 25.0357 13.3776 25.0412 13.7544C25.0467 14.1312 25.1988 14.491 25.4653 14.7574C25.7317 15.0239 26.0915 15.176 26.4683 15.1815C26.8451 15.187 27.2092 15.0454 27.4833 14.7869Z" fill="white"/>
</svg>
