<svg width="75" height="75" viewBox="0 0 75 75" fill="none" xmlns="http://www.w3.org/2000/svg">
<circle cx="37.5" cy="37.5" r="37.5" fill="#C7A943"/>
<path d="M31.4062 18.75C31.0333 18.75 30.6756 18.8982 30.4119 19.1619C30.1482 19.4256 30 19.7833 30 20.1562V24.375H25.7812C25.4083 24.375 25.0506 24.5232 24.7869 24.7869C24.5232 25.0506 24.375 25.4083 24.375 25.7812V34.7156L21.6375 35.7169C21.4547 35.7837 21.2878 35.8877 21.1472 36.0223C21.0067 36.1569 20.8957 36.3193 20.8211 36.499C20.7466 36.6788 20.7101 36.8721 20.7142 37.0666C20.7182 37.2612 20.7625 37.4528 20.8444 37.6294L25.2225 47.04C25.6364 46.9034 26.0733 46.8505 26.5078 46.8846C26.9424 46.9187 27.3657 47.039 27.7532 47.2385C28.1408 47.438 28.4846 47.7128 28.7648 48.0466C29.045 48.3805 29.2558 48.7669 29.385 49.1831C29.385 49.1906 29.3906 49.2075 29.4019 49.2337C29.4244 49.3 29.4663 49.4031 29.5275 49.5431C29.655 49.8244 29.8481 50.1881 30.105 50.5313C30.6225 51.2194 31.1625 51.5625 31.875 51.5625C32.5875 51.5625 33.1275 51.2213 33.6431 50.5313C33.9474 50.12 34.19 49.6664 34.3631 49.185C34.5701 48.5163 34.9854 47.9313 35.5485 47.5155C36.1115 47.0997 36.7928 46.8748 37.4928 46.8738C38.1928 46.8728 38.8747 47.0956 39.439 47.5097C40.0033 47.9238 40.4204 48.5076 40.6294 49.1756L40.6481 49.2281C40.6706 49.2944 40.7125 49.3975 40.7738 49.5375C40.9031 49.8206 41.0962 50.1844 41.355 50.5294C41.8762 51.2231 42.4181 51.5625 43.125 51.5625C43.8319 51.5625 44.3719 51.2213 44.8931 50.5313C45.195 50.1158 45.4385 49.6609 45.6169 49.1794C45.7503 48.7517 45.9699 48.3559 46.2621 48.0164C46.5543 47.6768 46.9129 47.4007 47.3159 47.205C47.7188 47.0093 48.1576 46.8982 48.6052 46.8785C49.0527 46.8589 49.4995 46.931 49.9181 47.0906L54.5456 37.6575C54.633 37.4797 54.6818 37.2854 54.6888 37.0874C54.6958 36.8894 54.6609 36.6921 54.5864 36.5085C54.5119 36.3249 54.3994 36.1592 54.2563 36.0221C54.1133 35.885 53.9428 35.7797 53.7562 35.7131L50.625 34.5956V25.7812C50.625 25.4083 50.4768 25.0506 50.2131 24.7869C49.9494 24.5232 49.5917 24.375 49.2188 24.375H45V20.1562C45 19.7833 44.8518 19.4256 44.5881 19.1619C44.3244 18.8982 43.9667 18.75 43.5938 18.75H31.4062ZM42.1875 24.375H32.8125V21.5625H42.1875V24.375ZM47.8125 27.1875V33.5925L39.5681 30.6506C38.2271 30.1726 36.761 30.1793 35.4244 30.6694L27.1875 33.6825V27.1875H47.8125ZM50.1131 49.8075L50.1075 49.7888C50.0276 49.4944 49.8543 49.2341 49.6135 49.0469C49.3728 48.8597 49.0777 48.7559 48.7728 48.751C48.4679 48.7461 48.1696 48.8405 47.923 49.0199C47.6764 49.1993 47.4948 49.454 47.4056 49.7456V49.7494L47.3981 49.7663L47.3606 49.875C47.3231 49.9775 47.2631 50.1225 47.1806 50.31C47.0119 50.6831 46.7531 51.1725 46.3931 51.6562C45.6656 52.6219 44.6306 53.4375 43.125 53.4375C41.6194 53.4375 40.5825 52.6219 39.8569 51.6562C39.4295 51.0786 39.0896 50.4411 38.8481 49.7644L38.8425 49.7475C38.7545 49.4592 38.5762 49.2067 38.3339 49.0274C38.0915 48.8481 37.798 48.7515 37.4965 48.7517C37.195 48.7519 36.9016 48.849 36.6595 49.0286C36.4174 49.2082 36.2395 49.4609 36.1519 49.7494L36.1444 49.77L36.1069 49.8769C35.8721 50.5135 35.5476 51.1133 35.1431 51.6581C34.4194 52.6219 33.3862 53.4375 31.875 53.4375C30.3638 53.4375 29.3287 52.6219 28.605 51.6562C28.1776 51.0809 27.8394 50.4444 27.6019 49.7681L27.5962 49.7475C27.5076 49.4557 27.3265 49.2007 27.0803 49.0208C26.8341 48.8409 26.5361 48.7459 26.2312 48.7502C25.9263 48.7544 25.6311 48.8576 25.3899 49.0443C25.1488 49.2309 24.9749 49.4909 24.8944 49.785L24.8888 49.8019L24.855 49.9031C24.6344 50.5261 24.3153 51.1098 23.91 51.6319C23.19 52.5506 22.0425 53.4375 20.1562 53.4375C19.7833 53.4375 19.4256 53.5857 19.1619 53.8494C18.8982 54.1131 18.75 54.4708 18.75 54.8438C18.75 55.2167 18.8982 55.5744 19.1619 55.8381C19.4256 56.1018 19.7833 56.25 20.1562 56.25C23.1075 56.25 25.0069 54.7931 26.1244 53.3681L26.25 53.2013L26.355 53.3438C27.39 54.7219 29.1675 56.25 31.875 56.25C34.5825 56.25 36.36 54.7219 37.3931 53.3438L37.5 53.1975L37.6087 53.3456C38.6437 54.7219 40.4212 56.25 43.125 56.25C45.8288 56.25 47.6062 54.7219 48.6412 53.3438L48.7444 53.2031C48.7844 53.2581 48.8256 53.3125 48.8681 53.3662C49.9837 54.7931 51.8869 56.25 54.8438 56.25C55.2167 56.25 55.5744 56.1018 55.8381 55.8381C56.1018 55.5744 56.25 55.2167 56.25 54.8438C56.25 54.4708 56.1018 54.1131 55.8381 53.8494C55.5744 53.5857 55.2167 53.4375 54.8438 53.4375C52.9463 53.4375 51.8006 52.5506 51.0844 51.6338C50.6604 51.0838 50.3321 50.4664 50.1131 49.8075Z" fill="white"/>
</svg>
