<svg width="26" height="26" viewBox="0 0 26 26" fill="none" xmlns="http://www.w3.org/2000/svg">
<path d="M23.8337 8.16284V18.4166C23.8337 19.2456 23.517 20.0432 22.9483 20.6464C22.3796 21.2495 21.6019 21.6125 20.7743 21.6612L20.5837 21.6666H5.41699C4.58801 21.6666 3.79035 21.3499 3.18721 20.7812C2.58407 20.2125 2.22104 19.4348 2.17241 18.6073L2.16699 18.4166V8.16284L12.3991 14.9846L12.5247 15.0561C12.6728 15.1285 12.8355 15.1661 13.0003 15.1661C13.1652 15.1661 13.3278 15.1285 13.4759 15.0561L13.6016 14.9846L23.8337 8.16284Z" fill="white"/>
<path d="M20.584 4.33325C21.754 4.33325 22.7799 4.95075 23.3519 5.87917L13.0007 12.78L2.64941 5.87917C2.92111 5.43806 3.29431 5.06829 3.73792 4.8007C4.18152 4.5331 4.68267 4.37543 5.19958 4.34084L5.41733 4.33325H20.584Z" fill="white"/>
</svg>
