<svg width="25" height="25" viewBox="0 0 25 25" fill="none" xmlns="http://www.w3.org/2000/svg">
<path d="M17.2458 13.4438L16.7719 13.9156C16.7719 13.9156 15.6437 15.0365 12.5656 11.976C9.4875 8.91563 10.6156 7.79479 10.6156 7.79479L10.9135 7.49688C11.65 6.76563 11.7198 5.59063 11.0771 4.73229L9.76458 2.97917C8.96875 1.91667 7.43229 1.77604 6.52083 2.68229L4.88541 4.30729C4.43437 4.75729 4.13229 5.33854 4.16875 5.98438C4.2625 7.6375 5.01041 11.1927 9.18125 15.3406C13.6052 19.7385 17.7562 19.9135 19.4531 19.7552C19.9906 19.7052 20.4573 19.4323 20.8333 19.0573L22.3125 17.5865C23.3125 16.5938 23.0312 14.8906 21.7521 14.1958L19.7625 13.1135C18.9229 12.6583 17.9021 12.7917 17.2458 13.4438Z" fill="white"/>
</svg>
