<svg width="75" height="75" viewBox="0 0 75 75" fill="none" xmlns="http://www.w3.org/2000/svg">
<circle cx="37.5" cy="37.5" r="37.5" fill="#C7A943"/>
<path fill-rule="evenodd" clip-rule="evenodd" d="M37.5975 17.3438H37.4025C35.7169 17.3438 34.3125 17.3438 33.1988 17.4938C32.0213 17.6513 30.9581 18 30.105 18.8531C29.25 19.7081 28.9013 20.7713 28.7438 21.9469C28.6369 22.7475 28.605 24.6581 28.5975 26.2969C24.8063 26.4225 22.5281 26.865 20.9475 28.4475C18.75 30.6431 18.75 34.1794 18.75 41.25C18.75 48.3206 18.75 51.8569 20.9475 54.0525C23.145 56.2481 26.6794 56.25 33.75 56.25H41.25C48.3206 56.25 51.8569 56.25 54.0525 54.0525C56.2481 51.855 56.25 48.3206 56.25 41.25C56.25 34.1794 56.25 30.6431 54.0525 28.4475C52.4719 26.865 50.1938 26.4225 46.4025 26.2988C46.395 24.6581 46.365 22.7475 46.2563 21.9488C46.0988 20.7713 45.75 19.7081 44.895 18.855C44.0419 18 42.9788 17.6513 41.8013 17.4938C40.6875 17.3438 39.2813 17.3438 37.5975 17.3438ZM43.59 26.2538C43.5806 24.6656 43.5544 22.9575 43.47 22.3219C43.3519 21.4575 43.1513 21.0863 42.9075 20.8425C42.6638 20.5988 42.2925 20.3981 41.4263 20.28C40.5225 20.16 39.3075 20.1563 37.5 20.1563C35.6925 20.1563 34.4775 20.16 33.5719 20.2819C32.7075 20.3981 32.3363 20.5988 32.0925 20.8444C31.8488 21.09 31.6481 21.4575 31.53 22.3219C31.4456 22.9594 31.4175 24.6656 31.41 26.2538C32.145 26.25 32.925 26.2488 33.75 26.25H41.25C42.0775 26.25 42.8575 26.2513 43.59 26.2538ZM37.5 32.3438C37.873 32.3438 38.2306 32.4919 38.4944 32.7556C38.7581 33.0194 38.9063 33.377 38.9063 33.75V33.7688C40.9481 34.2825 42.6563 35.8931 42.6563 38.1244C42.6563 38.4973 42.5081 38.855 42.2444 39.1187C41.9806 39.3825 41.623 39.5306 41.25 39.5306C40.877 39.5306 40.5194 39.3825 40.2556 39.1187C39.9919 38.855 39.8438 38.4973 39.8438 38.1244C39.8438 37.4044 39.045 36.4069 37.5 36.4069C35.955 36.4069 35.1563 37.4044 35.1563 38.1244C35.1563 38.8444 35.955 39.8438 37.5 39.8438C40.0969 39.8438 42.6563 41.6438 42.6563 44.3756C42.6563 46.6069 40.9481 48.2156 38.9063 48.7313V48.75C38.9063 49.123 38.7581 49.4807 38.4944 49.7444C38.2306 50.0081 37.873 50.1563 37.5 50.1563C37.127 50.1563 36.7694 50.0081 36.5056 49.7444C36.2419 49.4807 36.0938 49.123 36.0938 48.75V48.7313C34.0519 48.2175 32.3438 46.6069 32.3438 44.3756C32.3438 44.0027 32.4919 43.645 32.7556 43.3813C33.0194 43.1175 33.377 42.9694 33.75 42.9694C34.123 42.9694 34.4806 43.1175 34.7444 43.3813C35.0081 43.645 35.1563 44.0027 35.1563 44.3756C35.1563 45.0956 35.955 46.0931 37.5 46.0931C39.045 46.0931 39.8438 45.0956 39.8438 44.3756C39.8438 43.6556 39.045 42.6563 37.5 42.6563C34.9031 42.6563 32.3438 40.8563 32.3438 38.1244C32.3438 35.8931 34.0519 34.2825 36.0938 33.7688V33.75C36.0938 33.377 36.2419 33.0194 36.5056 32.7556C36.7694 32.4919 37.127 32.3438 37.5 32.3438Z" fill="white"/>
</svg>
