<svg width="40" height="40" viewBox="0 0 40 40" fill="none" xmlns="http://www.w3.org/2000/svg">
<rect y="-0.00012207" width="40" height="40" rx="20" fill="#171717"/>
<path fill-rule="evenodd" clip-rule="evenodd" d="M26.483 27.7899V27.7879L26.501 27.7449L29.5 12.6249V12.5769C29.5 12.1999 29.36 11.8709 29.058 11.6739C28.793 11.5009 28.488 11.4889 28.274 11.5049C28.0748 11.523 27.8783 11.5633 27.688 11.6249C27.6068 11.6508 27.5267 11.6801 27.448 11.7129L27.435 11.7179L10.715 18.2769L10.71 18.2789C10.6587 18.2952 10.6089 18.3156 10.561 18.3399C10.4421 18.3934 10.328 18.457 10.22 18.5299C10.005 18.6779 9.59597 19.0259 9.66497 19.5779C9.72197 20.0359 10.037 20.3259 10.25 20.4769C10.3754 20.5654 10.5106 20.6393 10.653 20.6969L10.685 20.7109L10.695 20.7139L10.702 20.7169L13.628 21.7019C13.6173 21.8859 13.6363 22.0709 13.685 22.2569L15.15 27.8159C15.23 28.1189 15.4029 28.3892 15.6445 28.5889C15.886 28.7886 16.1841 28.9076 16.4967 28.9293C16.8094 28.9509 17.121 28.874 17.3877 28.7095C17.6545 28.5449 17.863 28.301 17.984 28.0119L20.272 25.5659L24.201 28.5779L24.257 28.6019C24.614 28.7579 24.947 28.8069 25.252 28.7659C25.557 28.7239 25.799 28.5959 25.981 28.4509C26.1915 28.2803 26.3593 28.0628 26.471 27.8159L26.479 27.7989L26.482 27.7929L26.483 27.7899ZM15.135 21.8749C15.1187 21.8132 15.1226 21.7479 15.146 21.6886C15.1694 21.6293 15.211 21.5789 15.265 21.5449L25.186 15.2449C25.186 15.2449 25.77 14.8899 25.749 15.2449C25.749 15.2449 25.853 15.3069 25.54 15.5979C25.244 15.8749 18.469 22.4159 17.783 23.0779C17.7457 23.1156 17.7192 23.1625 17.706 23.2139L16.6 27.4339L15.135 21.8749Z" fill="white"/>
</svg>
