<svg width="29" height="32" viewBox="0 0 29 32" fill="none" xmlns="http://www.w3.org/2000/svg">
<path d="M13.7059 18.3684V12.0526M28 7.31579L24.8235 4.15789M10.5294 1H16.8824M13.7059 31C10.3361 31 7.10428 29.6692 4.72147 27.3003C2.33865 24.9314 1 21.7185 1 18.3684C1 15.0183 2.33865 11.8054 4.72147 9.43655C7.10428 7.06767 10.3361 5.73684 13.7059 5.73684C17.0757 5.73684 20.3075 7.06767 22.6903 9.43655C25.0731 11.8054 26.4118 15.0183 26.4118 18.3684C26.4118 21.7185 25.0731 24.9314 22.6903 27.3003C20.3075 29.6692 17.0757 31 13.7059 31Z" stroke="white" stroke-width="2" stroke-linecap="round" stroke-linejoin="round"/>
</svg>
