<svg width="40" height="40" viewBox="0 0 40 40" fill="none" xmlns="http://www.w3.org/2000/svg">
<rect width="40" height="40" rx="20" fill="#C7A943"/>
<path d="M27.2901 18.1072C27.3141 15.2152 24.8511 12.5642 21.8001 12.1972C21.7342 12.1888 21.6685 12.1788 21.6031 12.1672C21.4497 12.1384 21.2942 12.1217 21.1381 12.1172C20.5121 12.1172 20.3451 12.5572 20.3011 12.8182C20.2585 13.0742 20.2988 13.2865 20.4221 13.4552C20.6291 13.7362 20.9941 13.7862 21.2871 13.8262C21.3721 13.8382 21.4531 13.8492 21.5211 13.8642C24.2631 14.4772 25.1861 15.4402 25.6371 18.1592C25.6481 18.2252 25.6531 18.3072 25.6591 18.3942C25.6791 18.7192 25.7191 19.3952 26.4461 19.3952C26.5068 19.3952 26.5715 19.3902 26.6401 19.3802C27.3161 19.2772 27.2951 18.6592 27.2851 18.3622C27.2821 18.2782 27.2791 18.1992 27.2871 18.1462L27.2891 18.1062L27.2901 18.1072Z" fill="white"/>
<path d="M20.96 11.136C21.0427 11.1413 21.1167 11.1483 21.182 11.157C25.685 11.85 27.756 13.983 28.329 18.521C28.339 18.598 28.341 18.692 28.342 18.791C28.348 19.146 28.36 19.884 29.152 19.899H29.176C29.4253 19.899 29.6213 19.8247 29.764 19.676C30.01 19.419 29.994 19.036 29.979 18.728C29.9757 18.6513 29.9737 18.5813 29.973 18.518C30.031 13.878 26.013 9.669 21.377 9.513C21.357 9.513 21.3383 9.514 21.321 9.516L21.266 9.519C21.218 9.51833 21.1633 9.51567 21.102 9.511C21.03 9.506 20.947 9.5 20.862 9.5C20.124 9.5 19.984 10.025 19.966 10.338C19.925 11.061 20.624 11.112 20.96 11.136ZM28.112 24.386C28.0154 24.3126 27.9197 24.2379 27.825 24.162C27.333 23.766 26.81 23.402 26.305 23.049L25.99 22.829C25.342 22.374 24.76 22.153 24.21 22.153C23.468 22.153 22.822 22.563 22.288 23.37C22.052 23.728 21.765 23.902 21.412 23.902C21.1667 23.8947 20.9258 23.8343 20.706 23.725C18.616 22.777 17.122 21.323 16.268 19.404C15.855 18.476 15.989 17.87 16.715 17.376C17.128 17.096 17.895 16.575 17.842 15.576C17.78 14.443 15.279 11.032 14.225 10.645C13.7745 10.4804 13.2805 10.479 12.829 10.641C11.618 11.048 10.75 11.764 10.315 12.709C9.89501 13.623 9.91501 14.696 10.369 15.812C11.684 19.039 13.532 21.853 15.863 24.175C18.144 26.448 20.948 28.309 24.196 29.708C24.489 29.834 24.796 29.903 25.021 29.953C25.097 29.97 25.163 29.985 25.211 29.998C25.2374 30.0053 25.2646 30.009 25.292 30.009H25.318C26.846 30.009 28.681 28.613 29.244 27.022C29.738 25.628 28.836 24.939 28.112 24.386ZM21.636 14.823C21.375 14.829 20.83 14.843 20.639 15.397C20.549 15.657 20.5597 15.88 20.671 16.066C20.833 16.336 21.144 16.42 21.426 16.466C22.451 16.63 22.978 17.196 23.083 18.249C23.132 18.739 23.463 19.082 23.886 19.082C23.9181 19.0815 23.9501 19.0795 23.982 19.076C24.492 19.016 24.739 18.641 24.717 17.962C24.725 17.254 24.355 16.45 23.724 15.81C23.092 15.168 22.33 14.806 21.636 14.823Z" fill="white"/>
</svg>
