<svg width="40" height="40" viewBox="0 0 40 40" fill="none" xmlns="http://www.w3.org/2000/svg">
<rect y="-0.00012207" width="40" height="40" rx="20" fill="#171717"/>
<path d="M27.2896 18.1069C27.3136 15.2149 24.8506 12.5639 21.7996 12.1969C21.7337 12.1885 21.668 12.1785 21.6026 12.1669C21.4492 12.1381 21.2937 12.1214 21.1376 12.1169C20.5116 12.1169 20.3446 12.5569 20.3006 12.8179C20.258 13.0739 20.2983 13.2862 20.4216 13.4549C20.6286 13.7359 20.9936 13.7859 21.2866 13.8259C21.3716 13.8379 21.4526 13.8489 21.5206 13.8639C24.2626 14.4769 25.1856 15.4399 25.6366 18.1589C25.6476 18.2249 25.6526 18.3069 25.6586 18.3939C25.6786 18.7189 25.7186 19.3949 26.4456 19.3949C26.5063 19.3949 26.571 19.3899 26.6396 19.3799C27.3156 19.2769 27.2946 18.6589 27.2846 18.3619C27.2816 18.2779 27.2786 18.1989 27.2866 18.1459L27.2886 18.1059L27.2896 18.1069Z" fill="white"/>
<path d="M20.96 11.1359C21.0427 11.1412 21.1167 11.1482 21.182 11.1569C25.685 11.8499 27.756 13.9829 28.329 18.5209C28.339 18.5979 28.341 18.6919 28.342 18.7909C28.348 19.1459 28.36 19.8839 29.152 19.8989H29.176C29.4253 19.8989 29.6213 19.8245 29.764 19.6759C30.01 19.4189 29.994 19.0359 29.979 18.7279C29.9757 18.6512 29.9737 18.5812 29.973 18.5179C30.031 13.8779 26.013 9.66888 21.377 9.51288C21.357 9.51288 21.3383 9.51388 21.321 9.51588L21.266 9.51888C21.218 9.51821 21.1633 9.51554 21.102 9.51088C21.03 9.50588 20.947 9.49988 20.862 9.49988C20.124 9.49988 19.984 10.0249 19.966 10.3379C19.925 11.0609 20.624 11.1119 20.96 11.1359ZM28.112 24.3859C28.0154 24.3125 27.9197 24.2378 27.825 24.1619C27.333 23.7659 26.81 23.4019 26.305 23.0489L25.99 22.8289C25.342 22.3739 24.76 22.1529 24.21 22.1529C23.468 22.1529 22.822 22.5629 22.288 23.3699C22.052 23.7279 21.765 23.9019 21.412 23.9019C21.1667 23.8945 20.9258 23.8342 20.706 23.7249C18.616 22.7769 17.122 21.3229 16.268 19.4039C15.855 18.4759 15.989 17.8699 16.715 17.3759C17.128 17.0959 17.895 16.5749 17.842 15.5759C17.78 14.4429 15.279 11.0319 14.225 10.6449C13.7745 10.4803 13.2805 10.4788 12.829 10.6409C11.618 11.0479 10.75 11.7639 10.315 12.7089C9.89501 13.6229 9.91501 14.6959 10.369 15.8119C11.684 19.0389 13.532 21.8529 15.863 24.1749C18.144 26.4479 20.948 28.3089 24.196 29.7079C24.489 29.8339 24.796 29.9029 25.021 29.9529C25.097 29.9699 25.163 29.9849 25.211 29.9979C25.2374 30.0052 25.2646 30.0089 25.292 30.0089H25.318C26.846 30.0089 28.681 28.6129 29.244 27.0219C29.738 25.6279 28.836 24.9389 28.112 24.3859ZM21.636 14.8229C21.375 14.8289 20.83 14.8429 20.639 15.3969C20.549 15.6569 20.5597 15.8799 20.671 16.0659C20.833 16.3359 21.144 16.4199 21.426 16.4659C22.451 16.6299 22.978 17.1959 23.083 18.2489C23.132 18.7389 23.463 19.0819 23.886 19.0819C23.9181 19.0814 23.9501 19.0794 23.982 19.0759C24.492 19.0159 24.739 18.6409 24.717 17.9619C24.725 17.2539 24.355 16.4499 23.724 15.8099C23.092 15.1679 22.33 14.8059 21.636 14.8229Z" fill="white"/>
</svg>
