<svg width="40" height="40" viewBox="0 0 40 40" fill="none" xmlns="http://www.w3.org/2000/svg">
<rect y="-0.00012207" width="40" height="40" rx="20" fill="#171717"/>
<path d="M17.6663 23.4999L23.7213 19.9999L17.6663 16.4999V23.4999ZM31.153 14.3649C31.3047 14.9132 31.4097 15.6482 31.4797 16.5815C31.5613 17.5149 31.5963 18.3199 31.5963 19.0199L31.6663 19.9999C31.6663 22.5549 31.4797 24.4332 31.153 25.6349C30.8613 26.6849 30.1847 27.3615 29.1347 27.6532C28.5863 27.8049 27.583 27.9099 26.043 27.9799C24.5263 28.0615 23.138 28.0965 21.8547 28.0965L19.9997 28.1665C15.1113 28.1665 12.0663 27.9799 10.8647 27.6532C9.81467 27.3615 9.13801 26.6849 8.84634 25.6349C8.69467 25.0865 8.58967 24.3515 8.51967 23.4182C8.43801 22.4849 8.40301 21.6799 8.40301 20.9799L8.33301 19.9999C8.33301 17.4449 8.51967 15.5665 8.84634 14.3649C9.13801 13.3149 9.81467 12.6382 10.8647 12.3465C11.413 12.1949 12.4163 12.0899 13.9563 12.0199C15.473 11.9382 16.8613 11.9032 18.1447 11.9032L19.9997 11.8332C24.888 11.8332 27.933 12.0199 29.1347 12.3465C30.1847 12.6382 30.8613 13.3149 31.153 14.3649Z" fill="white"/>
</svg>
