<svg width="40" height="40" viewBox="0 0 40 40" fill="none" xmlns="http://www.w3.org/2000/svg">
<rect width="40" height="40" rx="20" fill="#C7A943"/>
<path d="M17.6666 23.5002L23.7216 20.0002L17.6666 16.5002V23.5002ZM31.1533 14.3652C31.3049 14.9135 31.4099 15.6485 31.4799 16.5818C31.5616 17.5152 31.5966 18.3202 31.5966 19.0202L31.6666 20.0002C31.6666 22.5552 31.4799 24.4335 31.1533 25.6352C30.8616 26.6852 30.1849 27.3618 29.1349 27.6535C28.5866 27.8052 27.5833 27.9102 26.0433 27.9802C24.5266 28.0618 23.1383 28.0968 21.8549 28.0968L19.9999 28.1668C15.1116 28.1668 12.0666 27.9802 10.8649 27.6535C9.81492 27.3618 9.13825 26.6852 8.84659 25.6352C8.69492 25.0868 8.58992 24.3518 8.51992 23.4185C8.43825 22.4852 8.40325 21.6802 8.40325 20.9802L8.33325 20.0002C8.33325 17.4452 8.51992 15.5668 8.84659 14.3652C9.13825 13.3152 9.81492 12.6385 10.8649 12.3468C11.4133 12.1952 12.4166 12.0902 13.9566 12.0202C15.4733 11.9385 16.8616 11.9035 18.1449 11.9035L19.9999 11.8335C24.8883 11.8335 27.9333 12.0202 29.1349 12.3468C30.1849 12.6385 30.8616 13.3152 31.1533 14.3652Z" fill="white"/>
</svg>
