<svg width="40" height="40" viewBox="0 0 40 40" fill="none" xmlns="http://www.w3.org/2000/svg">
<rect width="40" height="40" rx="20" fill="#C7A943"/>
<path fill-rule="evenodd" clip-rule="evenodd" d="M15.087 8.155C16.3578 8.0965 16.7629 8.0835 19.9999 8.0835C23.2369 8.0835 23.6421 8.09758 24.9118 8.155C26.1814 8.21241 27.0481 8.415 27.8064 8.70858C28.6005 9.00866 29.3209 9.47775 29.9168 10.0844C30.5234 10.6792 30.9914 11.3985 31.2904 12.1937C31.5851 12.952 31.7866 13.8187 31.8451 15.0862C31.9036 16.3591 31.9166 16.7642 31.9166 20.0002C31.9166 23.2361 31.9025 23.6423 31.8451 24.9131C31.7877 26.1806 31.5851 27.0472 31.2904 27.8056C30.9913 28.6008 30.5225 29.3213 29.9168 29.917C29.3209 30.5237 28.6005 30.9917 27.8064 31.2907C27.0481 31.5853 26.1814 31.7868 24.9139 31.8453C23.6421 31.9038 23.2369 31.9168 19.9999 31.9168C16.7629 31.9168 16.3578 31.9027 15.087 31.8453C13.8195 31.7879 12.9528 31.5853 12.1945 31.2907C11.3993 30.9915 10.6788 30.5228 10.0831 29.917C9.47705 29.3217 9.00793 28.6016 8.70834 27.8067C8.41475 27.0483 8.21325 26.1817 8.15475 24.9142C8.09625 23.6412 8.08325 23.2361 8.08325 20.0002C8.08325 16.7642 8.09734 16.358 8.15475 15.0883C8.21217 13.8187 8.41475 12.952 8.70834 12.1937C9.00824 11.3986 9.47774 10.6785 10.0842 10.0833C10.6791 9.47742 11.3989 9.00831 12.1934 8.70858C12.9518 8.415 13.8195 8.2135 15.087 8.155ZM24.8143 10.3C23.5576 10.2426 23.1806 10.2307 19.9988 10.2307C16.8171 10.2307 16.4401 10.2426 15.1834 10.3C14.021 10.3531 13.3905 10.547 12.9702 10.7106C12.4144 10.9272 12.0168 11.184 11.5998 11.6011C11.204 11.9854 10.8997 12.4538 10.7093 12.9715C10.5457 13.3918 10.3518 14.0223 10.2987 15.1847C10.2413 16.4414 10.2293 16.8184 10.2293 20.0002C10.2293 23.1819 10.2413 23.5589 10.2987 24.8156C10.3518 25.978 10.5457 26.6085 10.7093 27.0288C10.8999 27.5456 11.2043 28.0147 11.5998 28.3992C11.9843 28.7947 12.4534 29.0991 12.9702 29.2897C13.3905 29.4533 14.021 29.6472 15.1834 29.7003C16.4401 29.7577 16.816 29.7697 19.9988 29.7697C23.1817 29.7697 23.5576 29.7577 24.8143 29.7003C25.9767 29.6472 26.6072 29.4533 27.0275 29.2897C27.5833 29.0731 27.9808 28.8163 28.3979 28.3992C28.7933 28.0147 29.0978 27.5456 29.2884 27.0288C29.452 26.6085 29.6459 25.978 29.699 24.8156C29.7564 23.5589 29.7683 23.1819 29.7683 20.0002C29.7683 16.8184 29.7564 16.4414 29.699 15.1847C29.6459 14.0223 29.452 13.3918 29.2884 12.9715C29.0718 12.4157 28.815 12.0182 28.3979 11.6011C28.0136 11.2054 27.5452 10.901 27.0275 10.7106C26.6072 10.547 25.9767 10.3531 24.8143 10.3ZM18.4768 23.6737C19.3268 24.0276 20.2733 24.0754 21.1547 23.8089C22.036 23.5424 22.7975 22.9782 23.3091 22.2126C23.8206 21.447 24.0506 20.5276 23.9596 19.6114C23.8685 18.6951 23.4623 17.8389 22.8101 17.1889C22.3943 16.7734 21.8916 16.4553 21.3382 16.2574C20.7847 16.0595 20.1943 15.9868 19.6094 16.0445C19.0244 16.1022 18.4596 16.2889 17.9555 16.5911C17.4513 16.8933 17.0205 17.3035 16.6939 17.7922C16.3674 18.2809 16.1532 18.8359 16.0669 19.4173C15.9806 19.9987 16.0243 20.592 16.1948 21.1545C16.3653 21.717 16.6584 22.2347 17.0529 22.6703C17.4475 23.1059 17.9338 23.4486 18.4768 23.6737ZM15.6688 15.669C16.2375 15.1002 16.9128 14.649 17.6559 14.3412C18.3991 14.0334 19.1955 13.875 19.9999 13.875C20.8043 13.875 21.6008 14.0334 22.3439 14.3412C23.0871 14.649 23.7623 15.1002 24.3311 15.669C24.8999 16.2378 25.351 16.913 25.6589 17.6562C25.9667 18.3993 26.1251 19.1958 26.1251 20.0002C26.1251 20.8045 25.9667 21.601 25.6589 22.3442C25.351 23.0873 24.8999 23.7626 24.3311 24.3313C23.1824 25.48 21.6244 26.1254 19.9999 26.1254C18.3754 26.1254 16.8174 25.48 15.6688 24.3313C14.5201 23.1826 13.8747 21.6247 13.8747 20.0002C13.8747 18.3757 14.5201 16.8177 15.6688 15.669ZM27.4836 14.7872C27.6245 14.6542 27.7374 14.4943 27.8154 14.317C27.8935 14.1396 27.9351 13.9484 27.938 13.7547C27.9408 13.5609 27.9047 13.3686 27.8319 13.189C27.759 13.0095 27.6509 12.8464 27.5139 12.7094C27.3769 12.5724 27.2138 12.4642 27.0342 12.3914C26.8547 12.3185 26.6623 12.2825 26.4686 12.2853C26.2748 12.2881 26.0836 12.3298 25.9063 12.4078C25.7289 12.4859 25.569 12.5987 25.4361 12.7397C25.1775 13.0138 25.0359 13.3779 25.0414 13.7547C25.0469 14.1315 25.199 14.4913 25.4655 14.7577C25.732 15.0242 26.0918 15.1763 26.4686 15.1818C26.8454 15.1873 27.2095 15.0457 27.4836 14.7872Z" fill="white"/>
</svg>
