<svg width="24" height="24" viewBox="0 0 24 24" fill="none" xmlns="http://www.w3.org/2000/svg">
<path fill-rule="evenodd" clip-rule="evenodd" d="M7.08712 0.154752C8.35787 0.0962519 8.76304 0.083252 12 0.083252C15.237 0.083252 15.6422 0.0973353 16.9119 0.154752C18.1815 0.212169 19.0482 0.414752 19.8065 0.708335C20.6006 1.00842 21.321 1.4775 21.9169 2.08417C22.5235 2.67892 22.9915 3.39825 23.2905 4.19342C23.5852 4.95175 23.7867 5.81842 23.8452 7.08592C23.9037 8.35884 23.9167 8.764 23.9167 11.9999C23.9167 15.2358 23.9026 15.6421 23.8452 16.9128C23.7878 18.1803 23.5852 19.047 23.2905 19.8053C22.9914 20.6005 22.5227 21.321 21.9169 21.9168C21.321 22.5234 20.6006 22.9914 19.8065 23.2904C19.0482 23.5851 18.1815 23.7866 16.914 23.8451C15.6422 23.9036 15.237 23.9166 12 23.9166C8.76304 23.9166 8.35787 23.9025 7.08712 23.8451C5.81962 23.7877 4.95296 23.5851 4.19462 23.2904C3.39942 22.9913 2.67891 22.5225 2.08321 21.9168C1.47717 21.3215 1.00805 20.6013 0.708457 19.8064C0.414874 19.0481 0.213374 18.1814 0.154874 16.9139C0.096374 15.641 0.083374 15.2358 0.083374 11.9999C0.083374 8.764 0.0974573 8.35775 0.154874 7.08809C0.212291 5.81842 0.414874 4.95175 0.708457 4.19342C1.00837 3.3984 1.47786 2.67826 2.08429 2.08309C2.67926 1.47718 3.39901 1.00806 4.19354 0.708335C4.95187 0.414752 5.81962 0.213252 7.08712 0.154752ZM16.8144 2.29975C15.5577 2.24234 15.1807 2.23042 11.999 2.23042C8.81721 2.23042 8.44021 2.24234 7.18354 2.29975C6.02112 2.35284 5.39062 2.54675 4.97029 2.71034C4.41454 2.927 4.01696 3.18375 3.59987 3.60084C3.20416 3.98519 2.89984 4.45353 2.70937 4.97125C2.54579 5.39159 2.35187 6.02209 2.29879 7.1845C2.24137 8.44117 2.22946 8.81817 2.22946 11.9999C2.22946 15.1817 2.24137 15.5587 2.29879 16.8153C2.35187 17.9778 2.54579 18.6083 2.70937 19.0286C2.90004 19.5453 3.20446 20.0144 3.59987 20.399C3.98446 20.7944 4.45354 21.0988 4.97029 21.2895C5.39062 21.4531 6.02112 21.647 7.18354 21.7001C8.44021 21.7575 8.81612 21.7694 11.999 21.7694C15.1818 21.7694 15.5577 21.7575 16.8144 21.7001C17.9768 21.647 18.6073 21.4531 19.0276 21.2895C19.5834 21.0728 19.981 20.8161 20.398 20.399C20.7935 20.0144 21.0979 19.5453 21.2885 19.0286C21.4521 18.6083 21.646 17.9778 21.6991 16.8153C21.7565 15.5587 21.7685 15.1817 21.7685 11.9999C21.7685 8.81817 21.7565 8.44117 21.6991 7.1845C21.646 6.02209 21.4521 5.39159 21.2885 4.97125C21.0719 4.4155 20.8151 4.01792 20.398 3.60084C20.0137 3.20512 19.5454 2.9008 19.0276 2.71034C18.6073 2.54675 17.9768 2.35284 16.8144 2.29975ZM10.4769 15.6735C11.3269 16.0274 12.2735 16.0751 13.1548 15.8086C14.0361 15.5421 14.7976 14.9779 15.3092 14.2123C15.8208 13.4468 16.0507 12.5274 15.9597 11.6111C15.8687 10.6949 15.4624 9.83864 14.8102 9.18867C14.3945 8.77318 13.8918 8.45505 13.3383 8.25716C12.7849 8.05927 12.1944 7.98656 11.6095 8.04425C11.0246 8.10195 10.4597 8.28861 9.95558 8.59081C9.45145 8.89301 9.0206 9.30323 8.69404 9.79192C8.36747 10.2806 8.15333 10.8356 8.06702 11.417C7.9807 11.9984 8.02437 12.5917 8.19488 13.1542C8.36538 13.7167 8.65848 14.2344 9.05307 14.67C9.44766 15.1057 9.93393 15.4484 10.4769 15.6735ZM7.66887 7.66875C8.23765 7.09998 8.91289 6.6488 9.65603 6.34098C10.3992 6.03316 11.1957 5.87472 12 5.87472C12.8044 5.87472 13.6009 6.03316 14.3441 6.34098C15.0872 6.6488 15.7624 7.09998 16.3312 7.66875C16.9 8.23753 17.3512 8.91277 17.659 9.65591C17.9668 10.3991 18.1252 11.1955 18.1252 11.9999C18.1252 12.8043 17.9668 13.6008 17.659 14.3439C17.3512 15.0871 16.9 15.7623 16.3312 16.3311C15.1825 17.4798 13.6245 18.1251 12 18.1251C10.3755 18.1251 8.81757 17.4798 7.66887 16.3311C6.52018 15.1824 5.87485 13.6244 5.87485 11.9999C5.87485 10.3754 6.52018 8.81745 7.66887 7.66875ZM19.4837 6.78692C19.6247 6.65396 19.7375 6.49407 19.8155 6.31672C19.8936 6.13937 19.9353 5.94817 19.9381 5.75443C19.9409 5.56068 19.9048 5.36835 19.832 5.1888C19.7591 5.00925 19.651 4.84614 19.514 4.70913C19.377 4.57212 19.2139 4.46399 19.0343 4.39115C18.8548 4.3183 18.6624 4.28223 18.4687 4.28505C18.275 4.28787 18.0838 4.32954 17.9064 4.40759C17.7291 4.48564 17.5692 4.59847 17.4362 4.73942C17.1776 5.01353 17.0361 5.37763 17.0416 5.75443C17.047 6.13122 17.1992 6.49104 17.4656 6.7575C17.7321 7.02396 18.0919 7.17608 18.4687 7.18158C18.8455 7.18707 19.2096 7.0455 19.4837 6.78692Z" fill="white"/>
</svg>
