<svg width="30" height="30" viewBox="0 0 30 30" fill="none" xmlns="http://www.w3.org/2000/svg">
<path d="M20.695 16.1325L20.1263 16.6987C20.1263 16.6987 18.7725 18.0437 15.0788 14.3712C11.385 10.6987 12.7388 9.35372 12.7388 9.35372L13.0963 8.99622C13.98 8.11872 14.0638 6.70872 13.2925 5.67872L11.7175 3.57497C10.7625 2.29997 8.91875 2.13122 7.825 3.21872L5.8625 5.16872C5.32125 5.70872 4.95875 6.40622 5.0025 7.18122C5.115 9.16497 6.0125 13.4312 11.0175 18.4087C16.3263 23.6862 21.3075 23.8962 23.3438 23.7062C23.9888 23.6462 24.5488 23.3187 25 22.8687L26.775 21.1037C27.975 19.9125 27.6375 17.8687 26.1025 17.035L23.715 15.7362C22.7075 15.19 21.4825 15.35 20.695 16.1325Z" fill="#C7A943"/>
</svg>
