<svg width="21" height="21" viewBox="0 0 21 21" fill="none" xmlns="http://www.w3.org/2000/svg">
<path d="M8.41658 2.16668C6.75898 2.16668 5.16927 2.82516 3.99717 3.99726C2.82507 5.16936 2.16659 6.75907 2.16659 8.41668C2.16659 10.0743 2.82507 11.664 3.99717 12.8361C5.16927 14.0082 6.75898 14.6667 8.41658 14.6667C10.0742 14.6667 11.6639 14.0082 12.836 12.8361C14.0081 11.664 14.6666 10.0743 14.6666 8.41668C14.6666 6.75907 14.0081 5.16936 12.836 3.99726C11.6639 2.82516 10.0742 2.16668 8.41658 2.16668ZM0.083252 8.41668C0.0834419 7.09049 0.400146 5.7835 1.00704 4.60432C1.61394 3.42515 2.4935 2.40785 3.57263 1.63697C4.65176 0.866093 5.89929 0.363898 7.21154 0.172123C8.52379 -0.0196506 9.86286 0.104535 11.1175 0.534358C12.3721 0.964182 13.506 1.68723 14.4249 2.64341C15.3439 3.59959 16.0214 4.76129 16.4011 6.03196C16.7808 7.30263 16.8517 8.64558 16.608 9.94918C16.3643 11.2528 15.813 12.4794 14.9999 13.5271L20.6114 19.1385C20.8011 19.335 20.9061 19.5981 20.9037 19.8713C20.9014 20.1444 20.7918 20.4056 20.5987 20.5988C20.4056 20.7919 20.1443 20.9015 19.8712 20.9038C19.598 20.9062 19.3349 20.8012 19.1385 20.6115L13.527 15C12.2952 15.9564 10.8197 16.5479 9.26842 16.7073C7.71711 16.8667 6.1522 16.5876 4.75163 15.9018C3.35107 15.2159 2.17105 14.1508 1.34578 12.8276C0.520501 11.5044 0.0830787 9.97615 0.083252 8.41668Z" fill="white" fill-opacity="0.5"/>
</svg>
