<svg width="40" height="40" viewBox="0 0 40 40" fill="none" xmlns="http://www.w3.org/2000/svg">
<rect width="40" height="40" rx="20" fill="#C7A943"/>
<path fill-rule="evenodd" clip-rule="evenodd" d="M26.483 27.7902V27.7882L26.501 27.7452L29.5 12.6252V12.5772C29.5 12.2002 29.36 11.8712 29.058 11.6742C28.793 11.5012 28.488 11.4892 28.274 11.5052C28.0748 11.5234 27.8783 11.5636 27.688 11.6252C27.6068 11.6511 27.5267 11.6804 27.448 11.7132L27.435 11.7182L10.715 18.2772L10.71 18.2792C10.6587 18.2955 10.6089 18.3159 10.561 18.3402C10.4421 18.3937 10.328 18.4573 10.22 18.5302C10.005 18.6782 9.59597 19.0262 9.66497 19.5782C9.72197 20.0362 10.037 20.3262 10.25 20.4772C10.3754 20.5657 10.5106 20.6396 10.653 20.6972L10.685 20.7112L10.695 20.7142L10.702 20.7172L13.628 21.7022C13.6173 21.8862 13.6363 22.0712 13.685 22.2572L15.15 27.8162C15.23 28.1192 15.4029 28.3895 15.6445 28.5892C15.886 28.7889 16.1841 28.9079 16.4967 28.9296C16.8094 28.9512 17.121 28.8743 17.3877 28.7098C17.6545 28.5453 17.863 28.3013 17.984 28.0122L20.272 25.5662L24.201 28.5782L24.257 28.6022C24.614 28.7582 24.947 28.8072 25.252 28.7662C25.557 28.7242 25.799 28.5962 25.981 28.4512C26.1915 28.2806 26.3593 28.0631 26.471 27.8162L26.479 27.7992L26.482 27.7932L26.483 27.7902ZM15.135 21.8752C15.1187 21.8135 15.1226 21.7483 15.146 21.6889C15.1694 21.6296 15.211 21.5792 15.265 21.5452L25.186 15.2452C25.186 15.2452 25.77 14.8902 25.749 15.2452C25.749 15.2452 25.853 15.3072 25.54 15.5982C25.244 15.8752 18.469 22.4162 17.783 23.0782C17.7457 23.1159 17.7192 23.1628 17.706 23.2142L16.6 27.4342L15.135 21.8752Z" fill="white"/>
</svg>
