<svg width="40" height="40" viewBox="0 0 40 40" fill="none" xmlns="http://www.w3.org/2000/svg">
<rect y="-0.00012207" width="40" height="40" rx="20" fill="#171717"/>
<g clip-path="url(#clip0_175_324)">
<path d="M27.3208 13.5619C27.1688 13.4835 27.021 13.3974 26.8778 13.3039C26.4613 13.0288 26.0796 12.7045 25.7408 12.3379C24.8918 11.3669 24.5748 10.3819 24.4588 9.69288H24.4628C24.3658 9.11988 24.4058 8.74988 24.4128 8.74988H20.5478V23.6929C20.5492 23.8929 20.5465 24.0912 20.5398 24.2879L20.5358 24.3609C20.5358 24.3715 20.5348 24.3825 20.5328 24.3939V24.4029C20.4922 24.9389 20.3205 25.4567 20.0328 25.9108C19.7451 26.3649 19.3502 26.7413 18.8828 27.0069C18.3957 27.2854 17.8439 27.4309 17.2828 27.4289C15.4828 27.4289 14.0228 25.9609 14.0228 24.1479C14.0228 22.3349 15.4828 20.8659 17.2828 20.8659C17.6238 20.8659 17.9628 20.9199 18.2868 21.0259L18.2918 17.0899C17.3078 16.9631 16.3083 17.0415 15.3561 17.3204C14.404 17.5992 13.52 18.0723 12.7598 18.7099C12.0939 19.2887 11.5339 19.979 11.1048 20.7499C10.9418 21.0309 10.3258 22.1619 10.2518 23.9959C10.2048 25.0359 10.5178 26.1159 10.6668 26.5609V26.5709C10.7598 26.8329 11.1238 27.7289 11.7158 28.4839C12.1937 29.0894 12.7577 29.6218 13.3898 30.0639V30.0539L13.3988 30.0639C15.2688 31.3339 17.3438 31.2509 17.3438 31.2509C17.7028 31.2359 18.9058 31.2509 20.2718 30.6039C21.7868 29.8859 22.6488 28.8169 22.6488 28.8169C23.2004 28.1783 23.6387 27.4502 23.9448 26.6639C24.2948 25.7439 24.4108 24.6419 24.4108 24.2019V16.2729C24.4578 16.3009 25.0828 16.7139 25.0828 16.7139C25.0828 16.7139 25.9828 17.2909 27.3858 17.6659C28.3918 17.9329 29.7488 17.9899 29.7488 17.9899V14.1529C29.2738 14.2049 28.3088 14.0549 27.3198 13.5629" fill="white"/>
</g>
<defs>
<clipPath id="clip0_175_324">
<rect width="24" height="24" fill="white" transform="translate(8 7.99988)"/>
</clipPath>
</defs>
</svg>
