<svg width="40" height="40" viewBox="0 0 40 40" fill="none" xmlns="http://www.w3.org/2000/svg">
<rect width="40" height="40" rx="20" fill="#C7A943"/>
<path d="M27.3211 13.562C27.1691 13.4836 27.0212 13.3975 26.8781 13.304C26.4616 13.0289 26.0798 12.7046 25.7411 12.338C24.8921 11.367 24.5751 10.382 24.4591 9.693H24.4631C24.3661 9.12 24.4061 8.75 24.4131 8.75H20.5481V23.693C20.5494 23.893 20.5467 24.0913 20.5401 24.288L20.5361 24.361C20.5361 24.3717 20.5351 24.3827 20.5331 24.394V24.403C20.4925 24.939 20.3208 25.4569 20.0331 25.9109C19.7453 26.365 19.3504 26.7414 18.8831 27.007C18.396 27.2855 17.8442 27.431 17.2831 27.429C15.4831 27.429 14.0231 25.961 14.0231 24.148C14.0231 22.335 15.4831 20.866 17.2831 20.866C17.6241 20.866 17.9631 20.92 18.2871 21.026L18.2921 17.09C17.3081 16.9632 16.3085 17.0416 15.3564 17.3205C14.4042 17.5993 13.5202 18.0724 12.7601 18.71C12.0942 19.2888 11.5341 19.9791 11.1051 20.75C10.9421 21.031 10.3261 22.162 10.2521 23.996C10.2051 25.036 10.5181 26.116 10.6671 26.561V26.571C10.7601 26.833 11.1241 27.729 11.7161 28.484C12.1939 29.0896 12.7579 29.6219 13.3901 30.064V30.054L13.3991 30.064C15.2691 31.334 17.3441 31.251 17.3441 31.251C17.7031 31.236 18.9061 31.251 20.2721 30.604C21.7871 29.886 22.6491 28.817 22.6491 28.817C23.2007 28.1785 23.639 27.4503 23.9451 26.664C24.2951 25.744 24.4111 24.642 24.4111 24.202V16.273C24.4581 16.301 25.0831 16.714 25.0831 16.714C25.0831 16.714 25.9831 17.291 27.3861 17.666C28.3921 17.933 29.7491 17.99 29.7491 17.99V14.153C29.2741 14.205 28.3091 14.055 27.3201 13.563" fill="white"/>
</svg>
